HIERARCHY
ROOT Hips
{
	OFFSET 0.000000 0.000000 0.000000
	CHANNELS 6 Xposition Yposition Zposition Xrotation Yrotation Zrotation
	JOINT LeftUpLeg_virtual
	{
		OFFSET 0.000000 0.000000 0.000000
		CHANNELS 3 Xrotation Yrotation Zrotation
		JOINT LeftUpLeg
		{
			OFFSET 15.427100 -6.655098 0.678600
			CHANNELS 3 Xrotation Yrotation Zrotation
			JOINT LeftLeg
			{
				OFFSET 4.081073 -39.591068 13.024000
				CHANNELS 3 Xrotation Yrotation Zrotation
				JOINT LeftFoot
				{
					OFFSET -4.081074 -37.707932 -15.979700
					CHANNELS 3 Xrotation Yrotation Zrotation
					JOINT LeftToeBase
					{
						OFFSET 5.346399 -15.068900 20.645000
						CHANNELS 3 Xrotation Yrotation Zrotation
						JOINT LeftToe_End
						{
							OFFSET 2.754700 0.931300 11.300900
							CHANNELS 3 Xrotation Yrotation Zrotation
							End Site
							{
								OFFSET 0 0 0
							}
						}
					}
				}
			}
		}
	}
	JOINT RightUpLeg_virtual
	{
		OFFSET 0.000000 0.000000 0.000000
		CHANNELS 3 Xrotation Yrotation Zrotation
		JOINT RightUpLeg
		{
			OFFSET -15.569500 -6.655098 0.678600
			CHANNELS 3 Xrotation Yrotation Zrotation
			JOINT RightLeg
			{
				OFFSET -4.081825 -39.591045 13.023800
				CHANNELS 3 Xrotation Yrotation Zrotation
				JOINT RightFoot
				{
					OFFSET 4.081824 -37.707954 -15.979600
					CHANNELS 3 Xrotation Yrotation Zrotation
					JOINT RightToeBase
					{
						OFFSET -5.346400 -15.068900 20.645000
						CHANNELS 3 Xrotation Yrotation Zrotation
						JOINT RightToe_End
						{
							OFFSET -2.754700 0.931300 11.300900
							CHANNELS 3 Xrotation Yrotation Zrotation
							End Site
							{
								OFFSET 0 0 0
							}
						}
					}
				}
			}
		}
	}
	JOINT Spine_virtual
	{
		OFFSET 0.000000 0.000000 0.000000
		CHANNELS 3 Xrotation Yrotation Zrotation
		JOINT Spine
		{
			OFFSET -0.279200 12.230698 -2.892100
			CHANNELS 3 Xrotation Yrotation Zrotation
			JOINT Spine1
			{
				OFFSET -0.232667 10.192268 -1.242267
				CHANNELS 3 Xrotation Yrotation Zrotation
				JOINT Spine1_split
				{
					OFFSET -0.232667 10.192268 -1.242267
					CHANNELS 3 Xrotation Yrotation Zrotation
					JOINT Spine2
					{
						OFFSET -0.232667 10.192268 -1.242267
						CHANNELS 3 Xrotation Yrotation Zrotation
						JOINT Neck_virtual
						{
							OFFSET 0.000000 0.000000 0.000000
							CHANNELS 3 Xrotation Yrotation Zrotation
							JOINT Neck
							{
								OFFSET -0.418800 17.814194 8.416900
								CHANNELS 3 Xrotation Yrotation Zrotation
								JOINT Head
								{
									OFFSET 0.000000 7.031097 3.806800
									CHANNELS 3 Xrotation Yrotation Zrotation
									JOINT HeadTop_End
									{
										OFFSET 0.000000 24.646606 12.978600
										CHANNELS 3 Xrotation Yrotation Zrotation
										End Site
										{
											OFFSET 0 0 0
										}
									}
								}
							}
						}
						JOINT LeftShoulder_virtual
						{
							OFFSET 0.000000 0.000000 0.000000
							CHANNELS 3 Xrotation Yrotation Zrotation
							JOINT LeftShoulder
							{
								OFFSET 8.476499 7.247704 -3.868750
								CHANNELS 3 Xrotation Yrotation Zrotation
								JOINT LeftShoulder_split
								{
									OFFSET 8.476499 7.247704 -3.868750
									CHANNELS 3 Xrotation Yrotation Zrotation
									JOINT LeftArm
									{
										OFFSET 9.308998 -2.777710 0.208600
										CHANNELS 3 Xrotation Yrotation Zrotation
										JOINT LeftForeArm
										{
											OFFSET 29.972298 0.000000 0.000000
											CHANNELS 3 Xrotation Yrotation Zrotation
											JOINT LeftHand
											{
												OFFSET 26.026505 0.000000 0.000000
												CHANNELS 3 Xrotation Yrotation Zrotation
												End Site
												{
													OFFSET 0 0 0
												}
											}
										}
									}
								}
							}
						}
						JOINT RightShoulder_virtual
						{
							OFFSET 0.000000 0.000000 0.000000
							CHANNELS 3 Xrotation Yrotation Zrotation
							JOINT RightShoulder
							{
								OFFSET -7.570500 7.247704 -3.868750
								CHANNELS 3 Xrotation Yrotation Zrotation
								JOINT RightShoulder_split
								{
									OFFSET -7.570500 7.247704 -3.868750
									CHANNELS 3 Xrotation Yrotation Zrotation
									JOINT RightArm
									{
										OFFSET -9.308998 -2.777710 0.208500
										CHANNELS 3 Xrotation Yrotation Zrotation
										JOINT RightForeArm
										{
											OFFSET -29.972300 0.000000 0.000000
											CHANNELS 3 Xrotation Yrotation Zrotation
											JOINT RightHand
											{
												OFFSET -26.026505 0.000000 0.000000
												CHANNELS 3 Xrotation Yrotation Zrotation
												End Site
												{
													OFFSET 0 0 0
												}
											}
										}
									}
								}
							}
						}
					}
				}
			}
		}
	}
}
MOTION
Frames: 11
Frame Time: 0.03333333
6.087184 70.696556 -10.459204 0.000000 0.000000 0.000000 -8.396597 4.938726 1.280492 -32.613364 -5.179237 15.964391 66.176952 -4.651279 0.864044 -20.849398 0.149716 -16.403454 -3.994394 -4.812827 -0.269881 0.000000 0.000000 0.000000 -7.923749 4.463863 1.032710 -26.369482 -8.531827 -16.247482 64.394354 8.057078 -3.375997 -30.775306 -19.890529 19.899355 3.704942 7.710469 -18.460719 0.000000 0.000000 0.000000 -8.906839 6.455217 0.934484 15.598422 2.840707 2.663144 11.661800 -3.036399 2.725097 0.151863 -0.422872 0.052137 0.000000 0.000000 0.000000 13.376588 -0.900912 1.887758 10.838084 4.210463 2.186954 22.435961 -3.578909 -19.048402 0.000000 0.000000 0.000000 13.284377 -2.614946 1.155712 2.096560 -16.454534 -9.040835 9.174314 -3.456449 -4.324421 -32.754678 -13.937246 -47.746977 -45.098482 -69.346562 -52.325471 0.000000 0.000000 0.000000 13.954038 -1.950591 2.225673 3.186884 -2.552072 22.443520 9.292127 4.690146 5.905866 -37.327377 39.052037 55.062523 -60.142712 72.627396 54.986499 0.000000 0.000000 0.000000 
5.994395 71.419098 -10.082701 0.000000 0.000000 0.000000 -8.873778 4.833105 1.387813 -30.786080 -4.684364 15.639591 65.007842 -4.405536 1.094760 -21.368899 0.528378 -16.337787 -3.588404 -4.872943 -0.324766 0.000000 0.000000 0.000000 -8.352491 4.252909 1.143366 -25.096082 -9.029358 -15.979730 63.418969 7.992947 -3.363701 -30.702807 -19.497359 19.525595 3.529290 7.674129 -18.345483 0.000000 0.000000 0.000000 -9.257732 6.208657 1.136297 16.109459 2.903025 3.241812 10.663282 -3.393291 2.321612 0.082120 -0.490228 0.022411 0.000000 0.000000 0.000000 12.395175 -1.270560 1.541009 10.229349 4.639145 0.618642 21.983821 -2.956399 -17.807546 0.000000 0.000000 0.000000 12.654805 -2.921203 0.960059 1.737310 -15.093458 -9.900036 9.315404 -3.817009 -4.623035 -30.995767 -15.805000 -48.551799 -35.900963 -69.286778 -42.733437 0.000000 0.000000 0.000000 13.156079 -2.344303 1.766055 3.369517 -1.963806 22.415561 9.901175 3.463538 5.629561 -34.812381 39.241213 54.850756 -52.837906 74.299153 47.544086 0.000000 0.000000 0.000000 
5.830530 72.340935 -9.572336 0.000000 0.000000 0.000000 -9.326538 4.680549 1.540621 -28.814642 -4.197049 15.230767 63.384620 -4.160742 1.381198 -21.732117 0.987983 -16.276855 -2.794846 -4.920781 -0.307345 0.000000 0.000000 0.000000 -8.789472 4.122840 1.322357 -23.584635 -9.711884 -15.725903 62.132851 7.933330 -3.297238 -30.522387 -19.103759 19.081747 3.226593 7.680580 -18.213085 0.000000 0.000000 0.000000 -9.691135 6.089242 1.359343 16.638030 2.938552 3.693219 9.825017 -3.662379 1.970786 0.002219 -0.514841 0.048369 0.000000 0.000000 0.000000 11.578153 -1.561095 1.211369 9.643048 5.101076 -0.932106 20.254200 -2.450862 -16.490764 0.000000 0.000000 0.000000 12.065402 -3.169636 0.824157 1.424777 -14.498437 -10.799968 8.772345 -3.899854 -4.749439 -28.018361 -17.764765 -48.741722 -27.182826 -68.589689 -33.147082 0.000000 0.000000 0.000000 12.321474 -2.701267 1.382941 3.403246 -1.346566 22.397478 9.882109 2.296175 5.543668 -30.724739 39.469249 53.033642 -52.470391 77.732607 47.397708 0.000000 0.000000 0.000000 
5.588302 73.340813 -9.043032 0.000000 0.000000 0.000000 -9.681146 4.473704 1.679793 -26.925267 -3.848795 14.812713 61.568882 -3.993246 1.722837 -21.839188 1.381144 -16.261185 -1.905973 -4.973370 -0.193417 0.000000 0.000000 0.000000 -9.209082 4.094404 1.524041 -22.044815 -10.440074 -15.494030 60.681354 7.898847 -3.143167 -30.208284 -18.715106 18.635734 2.857054 7.729369 -18.131371 0.000000 0.000000 0.000000 -10.043348 6.093515 1.487979 17.132163 2.964400 4.007548 9.189773 -3.825663 1.716302 0.037887 -0.535341 0.110379 0.000000 0.000000 0.000000 11.009169 -1.757758 1.005360 8.991590 5.584227 -2.400855 17.540279 -2.061193 -15.332752 0.000000 0.000000 0.000000 11.499425 -3.332993 0.788034 1.228984 -14.475993 -11.561489 7.704013 -3.809249 -4.968391 -24.894320 -18.930448 -48.292405 -20.617124 -68.109280 -25.253986 0.000000 0.000000 0.000000 11.514119 -2.988196 1.149984 3.317825 -0.840858 22.288876 9.135280 1.519016 5.879798 -25.744122 38.828164 50.594090 -61.295934 81.780683 56.656122 0.000000 0.000000 0.000000 
5.324818 74.306099 -8.531881 0.000000 0.000000 0.000000 -9.914192 4.283925 1.763615 -25.291661 -3.731660 14.433552 59.817335 -3.901824 2.094668 -21.743547 1.675748 -16.262709 -1.085931 -5.023987 -0.046865 0.000000 0.000000 0.000000 -9.535578 4.173020 1.671305 -20.597185 -11.050684 -15.289191 59.235376 7.888045 -2.877973 -29.849112 -18.356089 18.199514 2.619484 7.790227 -18.116611 0.000000 0.000000 0.000000 -10.243163 6.150447 1.499922 17.485703 2.974105 4.218018 8.737268 -3.891450 1.544443 0.107484 -0.531597 0.161433 0.000000 0.000000 0.000000 10.652369 -1.868189 0.958410 8.215802 6.065650 -3.658332 14.154625 -1.872430 -14.482091 0.000000 0.000000 0.000000 11.003334 -3.404142 0.802456 1.182069 -14.692792 -12.193775 6.137233 -3.726151 -5.306472 -22.053475 -18.541771 -47.880326 -15.894134 -68.729919 -18.872450 0.000000 0.000000 0.000000 10.853524 -3.184559 1.050347 3.154181 -0.544464 22.099873 8.361868 1.517176 6.271039 -20.978462 36.747982 48.780057 -81.880704 84.751740 77.611262 0.000000 0.000000 0.000000 
5.084033 75.159370 -8.111879 0.000000 0.000000 0.000000 -10.034115 4.167436 1.755920 -24.018939 -3.836128 14.132016 58.288588 -3.904434 2.486155 -21.484937 1.881315 -16.364910 -0.499897 -5.059461 0.073765 0.000000 0.000000 0.000000 -9.780670 4.320457 1.728528 -19.318101 -11.460187 -15.076408 57.882575 7.875513 -2.530587 -29.578623 -18.056473 17.722871 2.686281 7.829910 -18.167861 0.000000 0.000000 0.000000 -10.287243 6.196456 1.408282 17.626751 2.968549 4.330328 8.440356 -3.889409 1.406506 0.213829 -0.480057 0.173261 0.000000 0.000000 0.000000 10.465037 -1.907556 1.008128 7.347511 6.501398 -4.568349 10.524648 -1.859099 -13.940528 0.000000 0.000000 0.000000 10.589889 -3.404769 0.792111 1.238853 -14.882840 -12.626128 4.666378 -3.722995 -5.550563 -19.818665 -16.469224 -48.262762 -10.995634 -70.555062 -12.266031 0.000000 0.000000 0.000000 10.380694 -3.271600 1.042817 3.004480 -0.472119 21.864928 7.846613 2.039295 6.347010 -17.801025 33.490689 48.644447 -100.023681 86.173922 95.929221 0.000000 0.000000 0.000000 
4.884488 75.854027 -7.794619 0.000000 0.000000 0.000000 -10.079645 4.157681 1.662525 -23.032335 -4.029757 13.912341 56.940617 -3.930708 2.828851 -21.177498 2.042053 -16.502041 -0.256051 -5.076652 0.170207 0.000000 0.000000 0.000000 -9.981509 4.426412 1.681579 -18.229273 -11.673263 -14.847018 56.703728 7.818156 -2.136690 -29.450365 -17.860111 17.169352 3.006265 7.842410 -18.252651 0.000000 0.000000 0.000000 -10.236398 6.291073 1.316736 17.543785 2.932650 4.334181 8.237170 -3.830767 1.250615 0.290319 -0.459014 0.140443 0.000000 0.000000 0.000000 10.364428 -1.908489 1.109784 6.442409 6.804307 -5.031295 7.005351 -2.084937 -13.568960 0.000000 0.000000 0.000000 10.253001 -3.350659 0.711363 1.380074 -14.784532 -12.741066 3.521790 -3.740822 -5.597855 -18.229990 -13.355987 -49.555259 -2.647856 -72.358191 -2.443860 0.000000 0.000000 0.000000 10.108217 -3.267532 1.069762 2.923029 -0.686234 21.444398 7.199331 2.957575 6.501405 -15.974989 29.732677 49.602336 -92.409871 87.152558 88.125689 0.000000 0.000000 0.000000 
4.764379 76.385574 -7.535719 0.000000 0.000000 0.000000 -10.081908 4.223125 1.533449 -22.315304 -4.174404 13.768857 55.757604 -3.943098 3.064622 -20.880737 2.218706 -16.624346 -0.181767 -5.064329 0.196160 0.000000 0.000000 0.000000 -10.116210 4.441593 1.587017 -17.287214 -11.736450 -14.609071 55.718614 7.708953 -1.743376 -29.422013 -17.781352 16.611271 3.369383 7.846145 -18.352698 0.000000 0.000000 0.000000 -10.178040 6.377109 1.279646 17.241318 2.865782 4.226294 8.087482 -3.739599 1.065555 0.275721 -0.447204 0.059848 0.000000 0.000000 0.000000 10.275370 -1.888148 1.183763 5.523844 6.932891 -4.999969 3.890063 -2.708995 -13.206275 0.000000 0.000000 0.000000 9.990287 -3.270978 0.542014 1.559084 -14.419354 -12.485953 2.640204 -3.876253 -5.227743 -16.908181 -10.107760 -51.617713 10.139381 -72.907563 11.444822 0.000000 0.000000 0.000000 9.998969 -3.200634 1.077589 2.927029 -1.163153 20.902655 6.769838 4.125807 6.452399 -15.145839 26.259934 50.983872 -63.681002 87.555273 58.922512 0.000000 0.000000 0.000000 
4.716906 76.782578 -7.321096 0.000000 0.000000 0.000000 -10.047533 4.239082 1.419155 -21.761160 -4.152386 13.691667 54.693214 -3.919662 3.174732 -20.657345 2.405256 -16.649928 -0.165079 -5.036374 0.194015 0.000000 0.000000 0.000000 -10.190843 4.341493 1.497740 -16.488522 -11.704348 -14.401254 54.897584 7.576373 -1.401497 -29.399993 -17.815867 16.194332 3.569736 7.851625 -18.455516 0.000000 0.000000 0.000000 -10.163006 6.484856 1.303581 16.820372 2.777137 3.984498 7.984259 -3.631186 0.869757 0.229406 -0.387449 -0.006437 0.000000 0.000000 0.000000 10.186281 -1.856071 1.173905 4.630467 6.877511 -4.554992 1.333359 -3.838503 -12.736927 0.000000 0.000000 0.000000 9.776960 -3.197381 0.301838 1.730129 -13.896780 -11.820256 2.145892 -4.054814 -4.441141 -15.953382 -7.462035 -53.895776 24.122777 -71.233067 26.093549 0.000000 0.000000 0.000000 9.964986 -3.089763 1.061871 3.013497 -1.804021 20.350281 6.361976 5.198896 6.401340 -14.583420 23.582569 52.210608 -41.237902 87.463871 35.901824 0.000000 0.000000 0.000000 
4.714884 77.060814 -7.112280 0.000000 0.000000 0.000000 -9.992445 4.125718 1.355131 -21.274817 -3.929290 13.670145 53.756270 -3.869652 3.170881 -20.532783 2.589889 -16.553911 -0.087634 -5.001782 0.210134 0.000000 0.000000 0.000000 -10.206267 4.165831 1.465958 -15.800061 -11.605398 -14.247959 54.251052 7.456974 -1.123959 -29.356115 -17.925835 15.979728 3.562935 7.854941 -18.539001 0.000000 0.000000 0.000000 -10.181208 6.594965 1.350509 16.355504 2.665744 3.643656 7.916281 -3.510286 0.671700 0.155395 -0.281616 -0.057489 0.000000 0.000000 0.000000 10.079350 -1.807760 1.070765 3.805600 6.657152 -3.837195 -0.755287 -5.591662 -12.150643 0.000000 0.000000 0.000000 9.612713 -3.135475 0.042151 1.906928 -13.362369 -10.905287 1.907240 -4.207460 -3.636960 -15.491859 -5.708420 -55.871644 34.821968 -67.641986 37.087063 0.000000 0.000000 0.000000 9.963776 -2.958394 1.018841 3.128646 -2.449530 19.868832 5.934548 6.139003 6.344614 -13.447953 21.612821 52.871183 -31.892435 87.815913 25.992042 0.000000 0.000000 0.000000 
4.731683 77.281410 -6.903559 0.000000 0.000000 0.000000 -9.928748 3.860064 1.347042 -20.882789 -3.535614 13.709792 53.028001 -3.847656 3.100638 -20.466715 2.734057 -16.452587 0.106958 -4.964899 0.253810 0.000000 0.000000 0.000000 -10.164111 3.930806 1.485655 -15.195993 -11.433334 -14.137465 53.735274 7.366678 -0.925922 -29.322702 -18.074009 15.939261 3.507966 7.822117 -18.599973 0.000000 0.000000 0.000000 -10.169556 6.650651 1.347377 15.900322 2.536184 3.266644 7.894557 -3.403051 0.488848 0.124778 -0.131609 -0.077969 0.000000 0.000000 0.000000 9.938742 -1.736798 0.885201 3.067327 6.350799 -3.013424 -2.480226 -7.958304 -11.477064 0.000000 0.000000 0.000000 9.518624 -3.084523 -0.207429 2.090757 -12.949993 -9.983354 1.934527 -4.402760 -2.937017 -15.505156 -4.741245 -57.385535 41.978513 -63.527214 44.268095 0.000000 0.000000 0.000000 9.984003 -2.816877 0.924070 3.241229 -2.906842 19.627331 5.652289 6.717278 5.827709 -11.658873 20.088732 53.218542 -29.950287 88.791476 23.659272 0.000000 0.000000 0.000000 
